PathFileType	4	(X/Y/Z)	Patient4_TMGait_0pt2_01_right_20.trc.trc
DataRate	CameraRate	NumFrames	NumMarkers	Units	OrigDataRate	OrigDataStartFrame	OrigNumFrames
45.901639344262	45.901639344262	5	33	mm	45.901639344262	106	       141
Frame#	Time	Sacral			L.Shoulder			Chest			R.Shoulder			Neck			R.ASIS			L.ASIS			R.Thigh.Superior			R.Thigh.Lateral			R.Thigh.Inferior			R.Patella			L.Thigh.Superior			L.Thigh.Lateral			L.Thigh.Inferior			L.Patella			L.Shank.Superior			L.Shank.Lateral			L.Shank.Inferior			R.Shank.Superior			R.Shank.Lateral			R.Shank.Inferior			R.Heel			R.Midfoot.Superior			R.Midfoot.Lateral			R.Toe			L.Heel			L.Midfoot.Lateral			L.Midfoot.Superior			L.Toe			L.Elbow			L.Wrist			R.Elbow			R.Wrist			
		X1	Y1	Z1	X2	Y2	Z2	X3	Y3	Z3	X4	Y4	Z4	X5	Y5	Z5	X6	Y6	Z6	X7	Y7	Z7	X8	Y8	Z8	X9	Y9	Z9	X10	Y10	Z10	X11	Y11	Z11	X12	Y12	Z12	X13	Y13	Z13	X14	Y14	Z14	X15	Y15	Z15	X16	Y16	Z16	X17	Y17	Z17	X18	Y18	Z18	X19	Y19	Z19	X20	Y20	Z20	X21	Y21	Z21	X22	Y22	Z22	X23	Y23	Z23	X24	Y24	Z24	X25	Y25	Z25	X26	Y26	Z26	X27	Y27	Z27	X28	Y28	Z28	X29	Y29	Z29	X30	Y30	Z30	X31	Y31	Z31	X32	Y32	Z32	X33	Y33	Z33	

106	47.267500000000	714.103444628699	987.533752379533	436.674452080366	890.840301777276	1420.775253041072	268.171355625193	1001.035110148045	1339.288107918773	418.264084193884	932.700911164711	1401.445813609693	602.232571698266	884.468023618164	1474.328032450800	431.005210604823	947.158355323045	914.751271246678	542.497682505724	924.245470368013	944.799807515556	271.826561426825	1000.077053739539	719.093292556716	513.640423839631	938.382127618305	610.461398046088	589.979810005035	1011.486100518593	552.510584869914	504.129538684885	1007.672905450183	440.310262149280	531.105235605200	991.170865900022	742.330326371745	327.918609810687	923.232571327376	607.408987441134	276.176807817210	1007.499070112014	544.731378555739	357.086519961666	1012.800191649144	466.745395604906	369.660475824195	967.725072002214	393.268637207094	361.122033992904	862.363586265035	297.266627533053	303.650454327013	878.400431669429	181.805716697541	379.962578239783	920.089738991111	382.732893028459	551.375354491405	797.967479981435	369.929009921581	621.854013715861	762.319602052694	260.867586498302	585.462156984745	553.458972055489	242.315265649659	573.011173247765	704.859979647194	145.093915740056	616.708278753149	598.646314854148	174.600302378933	648.861616696781	740.685070959079	28.998972099171	647.818097587885	720.301809508445	42.514585896931	405.892146613744	800.712844794759	38.528550845868	332.582129638302	883.931251901623	95.719441830023	367.328829061112	1011.859325015184	38.840972783520	346.583570952971	877.574441502177	1076.751376423777	126.854696808066	971.332410246860	831.159444267674	130.784889570936	951.465309224835	1041.175099462188	692.667445027988	1059.984775967155	804.763840567117	689.627647352208	
107	47.289285714286	713.210945191483	985.374964971595	433.152311631458	894.062253683446	1419.336309129837	268.575158093401	1001.597414803880	1336.782086278852	419.992576313025	930.240865202699	1397.752100289781	603.354424372869	885.521987078055	1472.009529047978	431.832626547692	945.411954483268	912.958286615750	541.483651055813	925.449443841497	942.765920207856	270.548120839690	1003.588739660326	720.557633252440	510.606586776974	945.881400764021	610.437331484869	586.789682195010	1020.088462347611	554.651725834279	500.004508829060	1018.994155762965	441.520823965877	527.072514065192	992.331738733626	740.375582039314	327.575675119393	924.715354404811	605.227725722045	276.102409430455	1008.209111136797	542.875320377708	358.306841573459	1013.317740513191	464.656396240812	371.284051675090	967.290372576218	391.243338316794	362.153719391480	861.112131671531	296.464723025916	304.053089650692	875.305708290413	180.781525360479	380.305655703671	930.637447204397	383.442439779337	547.336015620489	806.938194829978	372.028714578756	615.988315727015	771.494157540877	262.579246196501	580.466944960037	562.476328648717	244.100178051150	564.190785545675	713.672454672874	148.599638182228	612.926867369932	606.584338907918	178.944560718429	642.783307653667	748.632813961672	30.577908912821	648.571878718730	715.888888440631	42.431146749778	405.725646639125	796.360323453928	38.414815340642	332.468831102017	879.544053008845	95.582670565989	367.402951110006	1007.494446151788	38.824212569345	346.563505143460	892.186214013414	1077.430525105444	121.943188755212	998.563916189840	836.961771871697	125.344405650475	928.905834802311	1038.019185822487	696.156623058030	1018.563900076447	793.520951563727	699.819434487598	
108	47.311071428571	712.259424217707	983.848104235478	429.907611232688	897.574756585121	1418.230440220553	269.241796422774	1002.204337969723	1334.717053810136	422.119715294968	927.620496102113	1394.797153325793	604.598559380992	886.683685058892	1470.173045953404	432.785044383238	943.328923519436	911.623550292549	541.071777448612	926.732445293084	941.138211607859	269.878413850838	1006.371710302474	722.645555581002	508.214121514133	952.395553918269	611.064488006943	584.060634918761	1027.726086905287	557.520673679194	496.542697669318	1029.485357149228	443.721163580592	523.541507630899	993.149894873521	738.594045729709	327.705282071267	925.606774420261	603.430462227997	276.261465986949	1008.096674947156	541.199478733382	359.736192026152	1012.915351635860	462.870910074659	373.047344791156	966.106788888762	389.557060788842	363.260953358756	859.356613831397	295.807218525012	304.462724367024	871.955138552996	179.913593972050	380.635969389213	940.909542787934	384.630120159035	543.664296666836	815.864010341120	373.218845341183	610.401551913774	781.783528685937	263.171064868625	575.470415907925	572.793673786456	241.646115724136	555.346525916769	725.049700232351	150.897034534440	608.841587339868	616.934025959483	180.094929351396	636.596338217744	761.279262831796	32.639322622128	649.005396618882	711.446337827374	42.318094537067	405.528115561473	791.993428379737	38.281691663111	332.332518847700	875.130270318131	95.458001586488	367.443112755690	1003.118997065836	38.817497458135	346.546487351697	906.961933347910	1079.085740736071	117.252307425557	1026.359129788055	844.699930555074	120.475553713490	905.979936560042	1036.710399576726	699.295363023472	977.304970900484	786.324814168644	708.466586811821	
109	47.332857142857	711.287113168781	983.101870942619	426.906204129116	901.427562167461	1417.601694229108	270.167662268549	1002.853671744471	1333.253115303004	424.665082508133	924.821699859470	1392.775074253412	605.946957288591	887.939535597336	1468.974278927299	433.841187983806	940.895276009948	910.914190626021	541.292112248244	928.136019251471	940.051645959625	269.858003119838	1008.358712675505	725.417277704596	506.597240502139	957.747197159177	612.405982397795	581.937665010959	1034.236075141058	561.119519301718	493.934336397807	1038.959758308164	446.981765826766	520.726528090535	993.565889055223	737.065427404100	328.332111972027	925.815700379305	602.124121539200	276.633339091443	1007.039139351482	539.778834617628	361.332815578171	1011.450667442117	461.470379227844	374.879830964491	964.059572748445	388.300887016173	364.386850868330	857.007237442550	295.339385242564	304.845200670521	868.312836439110	179.253093073596	380.935343933238	950.856236005808	386.340085762609	540.578424456325	824.882973557359	373.342340456821	605.462973016436	793.433298028753	262.537563504606	570.794393679462	584.893584314699	234.792462653438	547.089175267752	739.343951845867	151.709142508711	604.671416572699	630.189231034163	177.659514714997	630.687007433075	779.029145883608	34.949708515789	648.925463441570	706.978459744405	42.191237151508	405.306141528917	787.613901995701	38.142593142127	332.178175465795	870.696792606799	95.355604109916	367.444804247273	998.733920575183	38.818082984440	346.533256468949	921.830901990909	1081.803426380648	112.897675233673	1054.496571982140	854.525821832832	116.333164786156	883.075533784963	1037.348546611922	701.869665683237	936.889054144440	782.948483339106	715.413117845759	
110	47.354642857143	710.328412583694	983.228704462268	424.126519496095	905.652594752346	1417.549661248075	271.352830879464	1003.544410700187	1332.495919900372	427.634155307464	921.846158349221	1391.807233187680	607.384304903255	889.279599307142	1468.514870477067	434.990547154587	938.124359551915	910.953719187716	542.157969324824	929.679837281911	939.590182266851	270.505112366664	1009.510500938698	728.867779065061	505.860369681845	961.794912752815	614.463784890332	580.549595980176	1039.476558038105	565.382913974876	492.331736065068	1047.236131200952	451.298240159924	518.804304940649	993.526182884336	735.842913720278	329.466380909910	925.279868882711	601.378211560484	277.196340104462	1004.959411348855	538.666857086222	363.051814181591	1008.833396808624	460.508892123399	376.715665819908	961.076027735402	387.535170726691	365.480834692094	854.003540041728	295.089595120289	305.171778714178	864.353730922364	178.833298638944	381.191372700562	960.411660129323	388.586410203914	538.273310947443	834.140204304823	372.305836720687	601.528386009232	806.625549529651	260.677921738553	566.764426256962	599.253810576627	223.710590382883	540.027985929989	756.765297978103	150.891630416294	600.666438065274	646.755930388872	171.527772267307	625.451088759529	801.944990914260	37.271079606810	648.166642530721	702.489774060547	42.061199102016	405.066360226959	783.222178110875	38.007195658564	332.010555118422	866.248146992200	95.282300138140	367.407024951783	994.339333836190	38.824785583255	346.525018616798	936.723368823940	1085.602019317110	109.006447442480	1082.734493430169	866.510470892192	113.077661905421	860.599172342050	1039.910241147746	703.701983660632	897.956832453992	783.018940697986	720.561314190876	
